<svg width="24" height="24" viewBox="0 0 24 24" fill="none" xmlns="http://www.w3.org/2000/svg">
<g clip-path="url(#clip0_302_182)">
<circle cx="12" cy="12" r="10" fill="#145049"/>
<path d="M8.94445 8L9.47794 7.35981C9.66794 7.13182 9.94938 7 10.2462 7H13.7538C14.0506 7 14.3321 7.13182 14.5221 7.35982L15.0556 8H17C17.5523 8 18 8.44772 18 9V16C18 16.5523 17.5523 17 17 17H7C6.44772 17 6 16.5523 6 16V9C6 8.44772 6.44772 8 7 8H8.94445Z" stroke="white" stroke-linecap="round"/>
<path fill-rule="evenodd" clip-rule="evenodd" d="M15 12C15 13.6569 13.6569 15 12 15C10.3431 15 9 13.6569 9 12C9 10.3431 10.3431 9 12 9C13.6569 9 15 10.3431 15 12ZM12.4286 11.5714H13.2857V12.4286H12.4286V13.2857H11.5714V12.4286H10.7143V11.5714H11.5714V10.7143H12.4286V11.5714Z" fill="white"/>
</g>
<defs>
<clipPath id="clip0_302_182">
<rect width="24" height="24" rx="1" fill="white"/>
</clipPath>
</defs>
</svg>
