<svg width="297" height="363" viewBox="0 0 297 363" fill="none" xmlns="http://www.w3.org/2000/svg">
<path d="M296.967 147H252.243C249.345 146.984 246.554 145.935 244.403 144.052C242.251 142.17 240.89 139.585 240.579 136.792C237.929 114.922 227.088 94.757 210.115 80.1231C193.141 65.4892 171.216 57.4052 148.5 57.4052C125.784 57.4052 103.859 65.4892 86.8853 80.1231C69.9117 94.757 59.071 114.922 56.4207 136.792C56.1096 139.585 54.7486 142.17 52.5973 144.052C50.446 145.935 47.655 146.984 44.7566 147H0.0333282C-0.385406 127.844 3.14524 108.799 10.4183 90.9831C17.6913 73.1668 28.5604 56.9373 42.3882 43.2461C56.2161 29.5548 72.7245 18.6773 90.9457 11.2512C109.167 3.82516 128.734 0 148.5 0C168.266 0 187.833 3.82516 206.054 11.2512C224.276 18.6773 240.784 29.5548 254.612 43.2461C268.44 56.9373 279.309 73.1668 286.582 90.9831C293.855 108.799 297.385 127.844 296.967 147V147Z" fill="url(#paint0_linear_515_879)"/>
<path d="M149 264C217.483 264 273 211.393 273 146.5C273 81.6066 217.483 29 149 29C80.5167 29 25 81.6066 25 146.5C25 211.393 80.5167 264 149 264Z" fill="url(#paint1_linear_515_879)"/>
<path d="M297 186.923C297.006 188.563 296.804 190.198 296.4 191.792C296.4 191.792 295.733 193.907 295.4 194.739C280.267 235.426 204.467 317.246 167.934 354.921C165.44 357.472 162.429 359.504 159.087 360.894C155.745 362.283 152.142 363 148.5 363C144.859 363 141.256 362.283 137.914 360.894C134.571 359.504 131.561 357.472 129.067 354.921C92.5339 317.246 16.7341 235.426 1.60081 194.739C1.60081 193.907 0.60081 191.792 0.60081 191.792C0.196282 190.198 -0.00519493 188.563 0.000812253 186.923C-0.0127624 185.522 0.143852 184.124 0.467477 182.758V182.758C1.45363 178.054 4.10465 173.824 7.96966 170.787C11.8347 167.75 16.675 166.093 21.6674 166.099C22.685 165.967 23.7165 165.967 24.7341 166.099C26.8322 166.566 28.902 167.143 30.934 167.829L120.734 193.458C121.726 193.729 122.626 194.247 123.343 194.959C124.061 195.671 124.57 196.552 124.82 197.514C125.071 198.475 125.052 199.483 124.768 200.436C124.484 201.389 123.943 202.253 123.2 202.941L113.734 211.975C110.436 215.157 108.585 219.465 108.585 223.957C108.585 228.448 110.436 232.756 113.734 235.938L140.867 262.016C142.889 263.977 145.599 265.142 148.467 265.283C151.335 265.142 154.045 263.977 156.067 262.016L183.2 235.938C186.498 232.756 188.349 228.448 188.349 223.957C188.349 219.465 186.498 215.157 183.2 211.975L173.867 202.941C173.14 202.256 172.612 201.401 172.333 200.46C172.054 199.519 172.035 198.525 172.277 197.575C172.519 196.625 173.015 195.752 173.714 195.041C174.413 194.33 175.293 193.807 176.267 193.522L266.067 167.893C268.099 167.208 270.169 166.63 272.267 166.163C273.284 166.031 274.316 166.031 275.333 166.163C280.33 166.167 285.174 167.825 289.047 170.86C292.921 173.894 295.588 178.119 296.6 182.822C296.864 184.174 296.998 185.547 297 186.923V186.923Z" fill="url(#paint2_linear_515_879)"/>
<defs>
<linearGradient id="paint0_linear_515_879" x1="148.5" y1="0" x2="148.5" y2="147" gradientUnits="userSpaceOnUse">
<stop stop-color="white" stop-opacity="0.35"/>
<stop offset="1" stop-color="white" stop-opacity="0"/>
</linearGradient>
<linearGradient id="paint1_linear_515_879" x1="149" y1="29" x2="149" y2="264" gradientUnits="userSpaceOnUse">
<stop stop-color="white" stop-opacity="0.35"/>
<stop offset="1" stop-color="white" stop-opacity="0"/>
</linearGradient>
<linearGradient id="paint2_linear_515_879" x1="148.5" y1="166" x2="148.5" y2="363" gradientUnits="userSpaceOnUse">
<stop stop-color="white" stop-opacity="0.35"/>
<stop offset="1" stop-color="white" stop-opacity="0"/>
</linearGradient>
</defs>
</svg>
