<svg width="24" height="24" viewBox="0 0 24 24" fill="none" xmlns="http://www.w3.org/2000/svg">
<g clip-path="url(#clip0_129_419)">
<path d="M11.0422 21.169L10 17H14.0248L12.9825 21.169C12.73 22.1789 11.2947 22.1789 11.0422 21.169Z" fill="#C79E74"/>
<path fill-rule="evenodd" clip-rule="evenodd" d="M7.99998 2C6.89541 2 5.99998 2.89543 5.99998 4V9.65988L2.44559 14.2806C1.43387 15.5958 2.37149 17.5 4.03084 17.5H19.9691C21.6285 17.5 22.5661 15.5958 21.5544 14.2806L18 9.65988V4C18 2.89543 17.1045 2 16 2H7.99998ZM16.5076 11H7.49238L4.03084 15.5H19.9691L16.5076 11ZM7.99998 4H16V9H7.99998V4Z" fill="#145049"/>
</g>
<defs>
<clipPath id="clip0_129_419">
<rect width="24" height="24" rx="1" fill="white"/>
</clipPath>
</defs>
</svg>
