<svg width="80" height="96" viewBox="0 0 80 96" fill="none" xmlns="http://www.w3.org/2000/svg">
<path d="M79.991 39H67.9443C67.1637 38.9959 66.4119 38.7175 65.8324 38.218C65.2529 37.7185 64.8863 37.0328 64.8025 36.2917C64.0886 30.4896 61.1686 25.1396 56.5965 21.2572C52.0245 17.3747 46.1187 15.2299 40 15.2299C33.8813 15.2299 27.9755 17.3747 23.4035 21.2572C18.8314 25.1396 15.9114 30.4896 15.1975 36.2917C15.1137 37.0328 14.7471 37.7185 14.1676 38.218C13.5881 38.7175 12.8364 38.9959 12.0557 39H0.00897729C-0.103813 33.9177 0.847202 28.8651 2.80627 24.1384C4.76533 19.4116 7.69303 15.1058 11.4177 11.4734C15.1424 7.84107 19.5891 4.95519 24.4971 2.98502C29.4052 1.01484 34.6758 0 40 0C45.3242 0 50.5948 1.01484 55.5029 2.98502C60.4109 4.95519 64.8576 7.84107 68.5823 11.4734C72.307 15.1058 75.2347 19.4116 77.1937 24.1384C79.1528 28.8651 80.1038 33.9177 79.991 39V39Z" fill="#145049"/>
<path d="M40 48C47.1797 48 53 42.6274 53 36C53 29.3726 47.1797 24 40 24C32.8203 24 27 29.3726 27 36C27 42.6274 32.8203 48 40 48Z" fill="#C79E74"/>
<path d="M80 49.5227C80.0016 49.9558 79.9473 50.3874 79.8384 50.8081C79.8384 50.8081 79.6588 51.3662 79.569 51.5861C75.4927 62.3255 55.0752 83.9229 45.2346 93.8675C44.563 94.5408 43.752 95.0773 42.8517 95.444C41.9515 95.8108 40.981 96 40.0001 96C39.0192 96 38.0487 95.8108 37.1485 95.444C36.2482 95.0773 35.4372 94.5408 34.7655 93.8675C24.9249 83.9229 4.5075 62.3255 0.431194 51.5861C0.431194 51.3662 0.161834 50.8081 0.161834 50.8081C0.0528705 50.3874 -0.00139931 49.9558 0.000218789 49.5227C-0.00343767 49.1529 0.0387481 48.784 0.12592 48.4234V48.4234C0.391551 47.1818 1.10563 46.0653 2.14671 45.2636C3.18779 44.4619 4.49158 44.0246 5.83634 44.0261C6.11044 43.9913 6.38827 43.9913 6.66238 44.0261C7.22752 44.1494 7.78504 44.3018 8.3324 44.4828L32.5209 51.2478C32.7881 51.3194 33.0305 51.456 33.2238 51.644C33.417 51.8319 33.5543 52.0645 33.6217 52.3184C33.689 52.5722 33.6842 52.8383 33.6076 53.0898C33.531 53.3413 33.3853 53.5693 33.1853 53.7509L30.6354 56.1355C29.7471 56.9755 29.2484 58.1127 29.2484 59.2982C29.2484 60.4837 29.7471 61.6209 30.6354 62.4609L37.944 69.3443C38.4885 69.8618 39.2185 70.1694 39.9911 70.2068C40.7637 70.1694 41.4937 69.8618 42.0382 69.3443L49.3469 62.4609C50.2351 61.6209 50.7338 60.4837 50.7338 59.2982C50.7338 58.1127 50.2351 56.9755 49.3469 56.1355L46.8328 53.7509C46.6372 53.57 46.4948 53.3444 46.4197 53.096C46.3446 52.8477 46.3395 52.5853 46.4047 52.3345C46.4699 52.0837 46.6032 51.8532 46.7917 51.6656C46.9801 51.4781 47.217 51.3399 47.4793 51.2647L71.6678 44.4997C72.2151 44.3187 72.7727 44.1663 73.3378 44.043C73.6119 44.0082 73.8897 44.0082 74.1638 44.043C75.5099 44.044 76.8145 44.4818 77.8579 45.2828C78.9013 46.0837 79.6197 47.1988 79.8922 48.4403C79.9634 48.7972 79.9995 49.1596 80 49.5227V49.5227Z" fill="#145049"/>
</svg>
