<svg width="42" height="18" viewBox="0 0 42 18" fill="none" xmlns="http://www.w3.org/2000/svg">
<g clip-path="url(#clip0_595_2172)">
<path d="M0.203247 17.8054H41.7968" stroke="#1080BF" stroke-width="0.75" stroke-miterlimit="10" stroke-linecap="round"/>
<path d="M5.21724 9.32996C3.73358 10.0405 2.71533 11.5101 2.71533 13.2056C2.71533 15.5979 4.73962 17.5387 7.2395 17.5387C9.73938 17.5387 11.7637 15.5999 11.7637 13.2056C11.7637 12.4815 11.5787 11.7982 11.2495 11.1987L5.21724 9.32996Z" stroke="#1080BF" stroke-width="0.75" stroke-miterlimit="10" stroke-linecap="round"/>
<path d="M31.2749 8.19702C28.5413 8.19702 26.326 10.3188 26.326 12.9369C26.326 15.5551 28.5413 17.6769 31.2749 17.6769C34.0085 17.6769 36.2239 15.5551 36.2239 12.9369C36.2239 10.3188 34.0085 8.19702 31.2749 8.19702Z" stroke="#1080BF" stroke-width="0.75" stroke-miterlimit="10" stroke-linecap="round"/>
<path d="M6.69684 14.8018H7.78012L8.65609 14.1925L8.98941 13.2056L8.65609 12.2206L7.78012 11.6113H6.69684L5.82087 12.2206L5.48755 13.2056L5.82087 14.1925L6.69684 14.8018Z" stroke="#1080BF" stroke-width="0.75" stroke-miterlimit="10" stroke-linecap="round"/>
<path d="M30.6611 14.7648H31.8887L32.8806 14.0738L33.2606 12.9545L32.8806 11.8372L31.8887 11.1461H30.6611L29.6673 11.8372L29.2872 12.9545L29.6673 14.0738L30.6611 14.7648Z" stroke="#1080BF" stroke-width="0.75" stroke-miterlimit="10" stroke-linecap="round"/>
<path d="M22.5029 4.86255H13.0054" stroke="#1080BF" stroke-width="0.75" stroke-miterlimit="10" stroke-linecap="round"/>
<path d="M17.1719 6.33612H21.7774" stroke="#1080BF" stroke-width="0.75" stroke-miterlimit="10" stroke-linecap="round"/>
<path d="M13.1884 4.23574C13.1884 4.23574 13.664 1.93878 18.432 2.68627C18.432 2.68627 20.2267 3.02303 22.7245 4.84308C22.7245 4.84308 25.891 5.97404 28.2486 3.62257L32.2952 3.35979C32.2952 3.35979 32.8236 3.35589 32.85 3.64009L35.1528 3.68486C35.1528 3.68486 36.043 3.68486 34.1894 4.93651C34.1894 4.93651 33.9231 5.24018 34.7158 5.39201C34.7158 5.39201 36.4393 5.84751 36.6344 6.02465C36.6344 6.02465 36.8011 6.26019 35.9312 6.7079C35.9312 6.7079 36.9962 8.09775 37.0836 9.06715C37.0836 9.06715 34.8316 6.04217 30.9782 5.83972C30.9782 5.83972 28.2689 5.46988 26.3686 7.40672C26.3686 7.40672 25.1715 8.77127 21.688 8.26711C21.688 8.26711 19.3161 6.13366 17.0195 6.35362C17.0195 6.35362 11.9933 6.95706 13.1904 4.23964L13.1884 4.23574Z" stroke="#1080BF" stroke-width="0.75" stroke-linecap="round" stroke-linejoin="round"/>
<path d="M7.23743 13.2056L12.5807 2.10425C12.5807 2.10425 13.1355 0.537259 16.0907 0.58787" stroke="#1080BF" stroke-width="0.75" stroke-miterlimit="10" stroke-linecap="round"/>
<path d="M12.1966 1.88427L11.9567 0.646247C11.8755 0.227733 11.3531 0.050594 11.0157 0.327008L10.0158 1.14457C9.6784 1.42098 9.78002 1.94267 10.1987 2.08477L11.4364 2.50523C11.8551 2.64733 12.2758 2.30278 12.1945 1.88427H12.1966Z" stroke="#1080BF" stroke-width="0.75" stroke-miterlimit="10" stroke-linecap="round"/>
<path d="M11.4324 3.22154L10.2515 2.25604C9.82067 1.90371 9.15607 2.19764 9.15607 2.73879V4.67174C9.15607 5.21484 9.82067 5.50683 10.2515 5.1545L11.4324 4.18899C11.7433 3.93594 11.7433 3.47655 11.4324 3.22154Z" stroke="#1080BF" stroke-width="0.75" stroke-miterlimit="10" stroke-linecap="round"/>
<path d="M22.5029 4.68537C22.5029 4.68537 23.6248 6.36916 26.7385 5.9487C26.7385 5.9487 31.2383 4.51796 31.8196 4.23376" stroke="#1080BF" stroke-width="0.75" stroke-miterlimit="10" stroke-linecap="round"/>
<path d="M4.96112 9.28323C4.96112 9.28323 9.05239 9.00487 10.7413 11.2045C10.7413 11.2045 11.534 11.3816 11.664 10.7743C11.664 10.7743 9.18246 7.13421 4.96112 9.28323V9.28323Z" stroke="#1080BF" stroke-width="0.75" stroke-linecap="round" stroke-linejoin="round"/>
<path d="M12.5278 6.89673L13.5481 12.863C13.5481 12.863 13.7595 14.9867 15.8346 14.9517H21.3242C21.3242 14.9517 24.5964 15.121 25.265 13.8733C25.265 13.8733 25.6512 13.0304 26.2507 12.5243" stroke="#1080BF" stroke-width="0.75" stroke-miterlimit="10" stroke-linecap="round"/>
<path d="M16.7715 12.316C17.3148 12.316 17.7552 11.8942 17.7552 11.3738C17.7552 10.8535 17.3148 10.4317 16.7715 10.4317C16.2283 10.4317 15.7878 10.8535 15.7878 11.3738C15.7878 11.8942 16.2283 12.316 16.7715 12.316Z" stroke="#1080BF" stroke-width="0.75" stroke-miterlimit="10" stroke-linecap="round"/>
<path d="M17.4504 7.24707L22.1473 10.6341C22.1473 10.6341 23.0964 11.1908 23.6249 10.6341L25.4723 9.37079" stroke="#1080BF" stroke-width="0.75" stroke-miterlimit="10" stroke-linecap="round"/>
<path d="M31.5045 12.935L25.0435 10.0054" stroke="#1080BF" stroke-width="0.75" stroke-miterlimit="10" stroke-linecap="round"/>
<path d="M24.3504 8.28269L27.771 9.58884L26.3666 7.40479" stroke="#1080BF" stroke-width="0.75" stroke-linecap="round" stroke-linejoin="round"/>
<path d="M14.3082 9.91583L14.7696 12.8474C14.7696 12.8474 14.9688 13.8577 16.4321 13.7564C16.4321 13.7564 20.9583 13.554 22.2245 13.0985C22.2245 13.0985 23.1615 12.4483 25.0414 11.8391" stroke="#1080BF" stroke-width="0.75" stroke-miterlimit="10" stroke-linecap="round"/>
<path d="M30.2058 5.81638C30.2058 5.81638 32.7565 5.59641 34.1894 4.93652" stroke="#1080BF" stroke-width="0.75" stroke-miterlimit="10" stroke-linecap="round"/>
</g>
<defs>
<clipPath id="clip0_595_2172">
<rect width="42" height="18" fill="white"/>
</clipPath>
</defs>
</svg>
