<svg width="24" height="24" viewBox="0 0 24 24" fill="none" xmlns="http://www.w3.org/2000/svg">
<path d="M5 4V20.0021C5 20.7151 5.72489 21.1991 6.38342 20.9257L11.6166 18.7531C11.862 18.6512 12.138 18.6512 12.3834 18.7531L17.6166 20.9257C18.2751 21.1991 19 20.7151 19 20.0021V4C19 3.44772 18.5523 3 18 3H6C5.44772 3 5 3.44772 5 4Z" stroke="#145049" stroke-width="2"/>
<path d="M11.536 6.15543C11.704 5.73719 12.296 5.73719 12.464 6.15542L13.4348 8.5729C13.5063 8.751 13.6735 8.87245 13.8649 8.88543L16.4641 9.06167C16.9137 9.09216 17.0967 9.65525 16.7508 9.94422L14.7517 11.6145C14.6044 11.7376 14.5405 11.9341 14.5874 12.1202L15.2229 14.6466C15.3329 15.0837 14.8539 15.4317 14.4722 15.1921L12.2659 13.8069C12.1033 13.7049 11.8967 13.7049 11.7341 13.8069L9.5278 15.1921C9.1461 15.4317 8.6671 15.0837 8.77706 14.6466L9.41263 12.1202C9.45945 11.9341 9.3956 11.7376 9.24832 11.6145L7.24916 9.94422C6.90329 9.65525 7.08625 9.09216 7.53592 9.06167L10.1351 8.88543C10.3265 8.87245 10.4937 8.751 10.5652 8.5729L11.536 6.15543Z" fill="#C79E74"/>
</svg>
