<svg width="52" height="78" viewBox="0 0 52 78" fill="none" xmlns="http://www.w3.org/2000/svg">
<path d="M5.52271 3.22907e-05C5.95575 -0.00154537 6.38737 0.0513679 6.80807 0.157608C6.80807 0.157608 7.36618 0.332687 7.58605 0.420229C18.3255 4.39463 39.9229 24.3016 49.8675 33.8962C50.5408 34.5511 51.0773 35.3418 51.444 36.2196C51.8108 37.0973 52 38.0436 52 38.9999C52 39.9563 51.8108 40.9025 51.444 41.7802C51.0773 42.658 50.5408 43.4487 49.8675 44.1036C39.9229 53.6982 18.3255 73.6052 7.58605 77.5796C7.36619 77.5796 6.80807 77.8422 6.80807 77.8422C6.38737 77.9485 5.95575 78.0014 5.52272 77.9998C5.15292 78.0034 4.78398 77.9622 4.4234 77.8772V77.8772C3.18183 77.6182 2.06525 76.922 1.26358 75.907C0.461899 74.8919 0.0246247 73.6207 0.0261251 72.3096C-0.00870871 72.0423 -0.00870872 71.7714 0.0261251 71.5042C0.149386 70.9532 0.301831 70.4096 0.482766 69.8759L7.2478 46.2921C7.31937 46.0316 7.45602 45.7952 7.64398 45.6068C7.83193 45.4184 8.06454 45.2846 8.31837 45.2189C8.5722 45.1532 8.83827 45.1579 9.08976 45.2326C9.34125 45.3073 9.56928 45.4493 9.75086 45.6443L12.1355 48.1305C12.9755 48.9965 14.1127 49.4828 15.2982 49.4828C16.4837 49.4828 17.6209 48.9965 18.4609 48.1305L25.3443 41.0046C25.8618 40.4737 26.1694 39.762 26.2068 39.0087C26.1694 38.2554 25.8618 37.5436 25.3443 37.0127L18.4608 29.8868C17.6209 29.0208 16.4837 28.5346 15.2982 28.5346C14.1127 28.5346 12.9755 29.0208 12.1355 29.8868L9.75086 32.338C9.57004 32.5288 9.34437 32.6676 9.09604 32.7408C8.84771 32.814 8.58526 32.819 8.33448 32.7554C8.08369 32.6919 7.85319 32.5618 7.66563 32.3781C7.47808 32.1944 7.33991 31.9634 7.26471 31.7077L0.499676 8.12391C0.318741 7.59023 0.166296 7.04665 0.0430352 6.49563C0.00820139 6.22838 0.00820138 5.9575 0.0430352 5.69025C0.0440039 4.37785 0.481826 3.10588 1.28276 2.08857C2.0837 1.07127 3.19882 0.370779 4.44031 0.105078C4.79722 0.0356652 5.15956 0.000503561 5.52271 3.22907e-05V3.22907e-05Z" fill="#145049"/>
</svg>
