<svg width="24" height="24" viewBox="0 0 24 24" fill="none" xmlns="http://www.w3.org/2000/svg">
<path fill-rule="evenodd" clip-rule="evenodd" d="M8 8C8 5.79086 9.79086 4 12 4C14.2091 4 16 5.79086 16 8C16 10.2091 14.2091 12 12 12C9.79086 12 8 10.2091 8 8ZM12 2C8.68629 2 6 4.68629 6 8C6 10.6791 7.75594 12.9481 10.1797 13.7189L11.0422 17.169C11.2947 18.1789 12.73 18.1789 12.9825 17.169L13.8472 13.7103C16.2571 12.9313 18 10.6692 18 8C18 4.68629 15.3137 2 12 2Z" fill="#145049"/>
<path fill-rule="evenodd" clip-rule="evenodd" d="M14.2451 15.9956H16.8395L19.2158 19.8792L4.78421 19.8792L7.16047 15.9956H9.75495L9.24506 13.9956H7.16047C6.46413 13.9956 5.81792 14.3578 5.45448 14.9518L3.07822 18.8354C2.2628 20.1681 3.22186 21.8792 4.78421 21.8792H19.2158C20.7781 21.8792 21.7372 20.1681 20.9218 18.8354L18.5455 14.9518C18.1821 14.3578 17.5359 13.9956 16.8395 13.9956H14.7549L14.2451 15.9956Z" fill="#145049"/>
<circle cx="10" cy="7" r="1" fill="#C79E74"/>
<circle cx="14" cy="7" r="1" fill="#C79E74"/>
<mask id="path-6-inside-1_122_373" fill="white">
<path d="M14 8.5C14 8.69698 13.9483 8.89204 13.8478 9.07403C13.7472 9.25601 13.5999 9.42137 13.4142 9.56066C13.2285 9.69995 13.008 9.81044 12.7654 9.88582C12.5227 9.9612 12.2626 10 12 10C11.7374 10 11.4773 9.9612 11.2346 9.88582C10.992 9.81044 10.7715 9.69995 10.5858 9.56066C10.4001 9.42137 10.2528 9.25601 10.1522 9.07403C10.0517 8.89204 10 8.69698 10 8.5L12 8.5H14Z"/>
</mask>
<path d="M14 8.5C14 8.69698 13.9483 8.89204 13.8478 9.07403C13.7472 9.25601 13.5999 9.42137 13.4142 9.56066C13.2285 9.69995 13.008 9.81044 12.7654 9.88582C12.5227 9.9612 12.2626 10 12 10C11.7374 10 11.4773 9.9612 11.2346 9.88582C10.992 9.81044 10.7715 9.69995 10.5858 9.56066C10.4001 9.42137 10.2528 9.25601 10.1522 9.07403C10.0517 8.89204 10 8.69698 10 8.5L12 8.5H14Z" stroke="#C79E74" stroke-width="2" mask="url(#path-6-inside-1_122_373)"/>
</svg>
