<svg width="24" height="24" viewBox="0 0 24 24" fill="none" xmlns="http://www.w3.org/2000/svg">
<path fill-rule="evenodd" clip-rule="evenodd" d="M4 10.5C4 6.91015 6.91015 4 10.5 4C14.0899 4 17 6.91015 17 10.5C17 14.0899 14.0899 17 10.5 17C6.91015 17 4 14.0899 4 10.5ZM10.5 2C5.80558 2 2 5.80558 2 10.5C2 15.1944 5.80558 19 10.5 19C12.3787 19 14.115 18.3905 15.522 17.3585L20.8361 21.8223C21.4913 22.3727 22.3727 21.4913 21.8223 20.8361L17.3585 15.522C18.3905 14.115 19 12.3787 19 10.5C19 5.80558 15.1944 2 10.5 2Z" fill="#145049"/>
</svg>
