<svg width="156" height="40" viewBox="0 0 156 40" fill="none" xmlns="http://www.w3.org/2000/svg">
<g clip-path="url(#clip0_498_844)">
<path d="M33.1917 15.9029H28.1981C27.8745 15.9012 27.5628 15.7853 27.3226 15.5773C27.0824 15.3693 26.9305 15.0837 26.8957 14.7751C26.5998 12.3591 25.3894 10.1314 23.4942 8.51469C21.599 6.89801 19.1509 6.00492 16.6146 6.00492C14.0782 6.00492 11.6301 6.89801 9.73493 8.51469C7.83973 10.1314 6.6293 12.3591 6.33338 14.7751C6.29864 15.0837 6.14668 15.3693 5.90648 15.5773C5.66627 15.7853 5.35464 15.9012 5.03102 15.9029H0.0374127C-0.00934131 13.7866 0.384875 11.6827 1.19695 9.71444C2.00903 7.74619 3.22262 5.95324 4.76658 4.44069C6.31054 2.92815 8.15379 1.72646 10.1883 0.906064C12.2228 0.0856699 14.4076 -0.336914 16.6146 -0.336914C18.8215 -0.336914 21.0063 0.0856699 23.0408 0.906064C25.0753 1.72646 26.9186 2.92815 28.4625 4.44069C30.0065 5.95324 31.2201 7.74619 32.0322 9.71444C32.8442 11.6827 33.2385 13.7866 33.1917 15.9029V15.9029Z" fill="white"/>
<path d="M16.5435 19.8145C19.4083 19.8145 21.7306 17.5871 21.7306 14.8395C21.7306 12.0919 19.4083 9.8645 16.5435 9.8645C13.6788 9.8645 11.3564 12.0919 11.3564 14.8395C11.3564 17.5871 13.6788 19.8145 16.5435 19.8145Z" fill="white"/>
<path d="M33.1544 20.3425C33.155 20.5253 33.1325 20.7074 33.0874 20.885C33.0874 20.885 33.013 21.1205 32.9758 21.2133C31.2864 25.7458 22.8248 34.8607 18.7466 39.0577C18.4682 39.3418 18.1321 39.5683 17.759 39.7231C17.3859 39.8779 16.9837 39.9577 16.5772 39.9577C16.1707 39.9577 15.7685 39.8779 15.3954 39.7231C15.0223 39.5683 14.6862 39.3418 14.4079 39.0577C10.3296 34.8607 1.86804 25.7458 0.1787 21.2133C0.1787 21.1205 0.067069 20.885 0.067069 20.885C0.0219111 20.7074 -0.000579915 20.5253 9.06725e-05 20.3425C-0.00142467 20.1864 0.0160584 20.0307 0.0521849 19.8786V19.8786C0.16227 19.3546 0.458206 18.8833 0.88966 18.545C1.32111 18.2067 1.86144 18.0221 2.41875 18.0227C2.53235 18.008 2.64749 18.008 2.76109 18.0227C2.9953 18.0748 3.22635 18.1391 3.4532 18.2155L13.4776 21.0706C13.5884 21.1008 13.6888 21.1584 13.7689 21.2378C13.849 21.3171 13.9059 21.4153 13.9338 21.5224C13.9617 21.6295 13.9597 21.7418 13.928 21.8479C13.8962 21.9541 13.8359 22.0503 13.753 22.127L12.6962 23.1334C12.3281 23.4879 12.1214 23.9678 12.1214 24.4681C12.1214 24.9685 12.3281 25.4484 12.6962 25.8029L15.7251 28.708C15.9508 28.9264 16.2533 29.0562 16.5735 29.072C16.8937 29.0562 17.1962 28.9264 17.4219 28.708L20.4508 25.8029C20.8189 25.4484 21.0256 24.9685 21.0256 24.4681C21.0256 23.9678 20.8189 23.4879 20.4508 23.1334L19.4089 22.127C19.3278 22.0506 19.2688 21.9554 19.2377 21.8506C19.2066 21.7458 19.2045 21.635 19.2315 21.5292C19.2585 21.4233 19.3138 21.3261 19.3919 21.2469C19.4699 21.1678 19.5681 21.1094 19.6768 21.0777L29.7013 18.2226C29.9281 18.1462 30.1592 18.0819 30.3934 18.0299C30.507 18.0152 30.6221 18.0152 30.7357 18.0299C31.2935 18.0303 31.8342 18.2151 32.2666 18.5531C32.699 18.8911 32.9968 19.3617 33.1097 19.8857C33.1392 20.0363 33.1542 20.1893 33.1544 20.3425V20.3425Z" fill="white"/>
<path d="M155.13 34.7253C155.137 34.763 155.137 34.8018 155.13 34.8395V34.9109C154.78 35.8459 153.023 37.766 152.153 38.6154C152.095 38.6744 152.025 38.7214 151.948 38.7535C151.87 38.7857 151.787 38.8022 151.702 38.8022C151.618 38.8022 151.535 38.7857 151.457 38.7535C151.38 38.7214 151.31 38.6744 151.252 38.6154C150.404 37.7374 148.648 35.8459 148.275 34.9109V34.8395C148.271 34.8015 148.271 34.7633 148.275 34.7253C148.272 34.6945 148.272 34.6633 148.275 34.6325V34.6325C148.298 34.5236 148.359 34.4255 148.449 34.3552C148.538 34.2848 148.651 34.2466 148.767 34.2471H148.841L148.982 34.2899L151.059 34.8895C151.081 34.8955 151.102 34.907 151.118 34.9229C151.135 34.9388 151.146 34.9585 151.152 34.9802C151.158 35.0018 151.158 35.0246 151.152 35.0463C151.146 35.0679 151.135 35.0877 151.118 35.1036L150.895 35.3106C150.82 35.3852 150.777 35.485 150.777 35.589C150.777 35.6929 150.82 35.7928 150.895 35.8673L151.528 36.4669C151.573 36.5122 151.634 36.5402 151.699 36.5454V36.5454C151.766 36.5406 151.83 36.5127 151.877 36.4669L152.502 35.8673C152.542 35.8314 152.573 35.7882 152.594 35.7403C152.615 35.6925 152.626 35.641 152.626 35.589C152.626 35.537 152.615 35.4855 152.594 35.4376C152.573 35.3898 152.542 35.3466 152.502 35.3106L152.287 35.1036C152.27 35.0877 152.258 35.0679 152.252 35.0463C152.246 35.0246 152.246 35.0018 152.253 34.9802C152.259 34.9585 152.27 34.9388 152.287 34.9229C152.303 34.907 152.324 34.8955 152.346 34.8895L154.423 34.2899L154.564 34.2471H154.638C154.754 34.248 154.865 34.2867 154.955 34.3568C155.044 34.4269 155.106 34.5242 155.13 34.6325C155.133 34.6633 155.133 34.6945 155.13 34.7253V34.7253Z" fill="white"/>
<path d="M142.069 15.2247C142.076 15.2792 142.076 15.3344 142.069 15.3889V15.4888C141.674 16.8736 139.695 19.6573 138.742 20.9492C138.69 21.0336 138.616 21.1034 138.527 21.152C138.439 21.2005 138.338 21.2261 138.236 21.2261C138.134 21.2261 138.034 21.2005 137.945 21.152C137.856 21.1034 137.782 21.0336 137.73 20.9492C136.777 19.6573 134.798 16.8736 134.403 15.4888V15.3889C134.399 15.3342 134.399 15.2794 134.403 15.2247C134.399 15.1772 134.399 15.1295 134.403 15.082V15.082C134.411 14.9408 134.471 14.8068 134.571 14.7036C134.672 14.6004 134.808 14.5347 134.954 14.5181C134.981 14.5145 135.009 14.5145 135.036 14.5181L135.2 14.5823L137.537 15.4603C137.564 15.4754 137.588 15.496 137.606 15.5205C137.625 15.5451 137.637 15.5732 137.644 15.6029C137.65 15.6325 137.65 15.6632 137.643 15.6927C137.636 15.7223 137.622 15.7501 137.603 15.7743L137.358 16.0884C137.271 16.2079 137.225 16.3498 137.225 16.4953C137.225 16.6407 137.271 16.7826 137.358 16.9021L138.102 17.7872C138.125 17.8192 138.155 17.846 138.189 17.8657C138.224 17.8855 138.263 17.8976 138.303 17.9014V17.9014C138.343 17.8967 138.381 17.8842 138.416 17.8645C138.451 17.8449 138.481 17.8185 138.504 17.7872L139.211 16.9021C139.297 16.7826 139.344 16.6407 139.344 16.4953C139.344 16.3498 139.297 16.2079 139.211 16.0884L138.965 15.7743C138.946 15.7506 138.932 15.7231 138.925 15.6939C138.917 15.6646 138.916 15.6342 138.922 15.6045C138.928 15.5749 138.94 15.5467 138.957 15.5219C138.975 15.497 138.998 15.476 139.025 15.4603L141.369 14.5823L141.533 14.5181C141.558 14.5146 141.583 14.5146 141.607 14.5181C141.755 14.5332 141.892 14.5982 141.995 14.7015C142.097 14.8048 142.157 14.9397 142.165 15.082V15.082C142.138 15.1324 142.106 15.1802 142.069 15.2247V15.2247Z" fill="white"/>
<path d="M51.8859 33.9687C51.89 34.0067 51.89 34.045 51.8859 34.0829V34.1543C51.5361 35.0893 49.7798 37.0094 48.9091 37.8588C48.852 37.9176 48.7828 37.9645 48.706 37.9965C48.6292 38.0286 48.5463 38.0451 48.4625 38.0451C48.3788 38.0451 48.2959 38.0286 48.2191 37.9965C48.1422 37.9645 48.0731 37.9176 48.016 37.8588C47.1676 36.9808 45.4113 35.0893 45.0392 34.1543V34.0829C45.0351 34.045 45.0351 34.0067 45.0392 33.9687C45.0356 33.9379 45.0356 33.9068 45.0392 33.8759V33.8759C45.0617 33.767 45.123 33.6689 45.2126 33.5986C45.3022 33.5282 45.4146 33.49 45.5304 33.4905H45.5973H45.7387L47.8225 34.0901C47.8444 34.0969 47.8641 34.1091 47.8797 34.1253C47.8953 34.1416 47.9063 34.1615 47.9115 34.183C47.9168 34.2046 47.9161 34.227 47.9096 34.2483C47.9032 34.2695 47.8911 34.2887 47.8746 34.3042L47.6588 34.5112C47.5833 34.5858 47.5411 34.6856 47.5411 34.7896C47.5411 34.8935 47.5833 34.9933 47.6588 35.0679L48.2839 35.6675C48.3318 35.7133 48.3951 35.7412 48.4625 35.746V35.746C48.5299 35.7412 48.5933 35.7133 48.6411 35.6675L49.2663 35.0679C49.3054 35.0319 49.3366 34.9887 49.3579 34.9409C49.3792 34.8931 49.3902 34.8416 49.3902 34.7896C49.3902 34.7375 49.3792 34.6861 49.3579 34.6382C49.3366 34.5904 49.3054 34.5472 49.2663 34.5112L49.0505 34.3042C49.034 34.2883 49.0223 34.2685 49.0163 34.2468C49.0103 34.2252 49.0103 34.2024 49.0163 34.1808C49.0223 34.1591 49.0341 34.1394 49.0506 34.1235C49.067 34.1075 49.0875 34.096 49.11 34.0901L51.1714 33.5476H51.3128H51.35C51.4664 33.5482 51.5791 33.5866 51.6697 33.6566C51.7603 33.7266 51.8234 33.8241 51.8487 33.933C51.8487 33.933 51.8859 33.9402 51.8859 33.9687Z" fill="white"/>
<path d="M50.0403 5.82431C50.0403 6.70226 49.9585 7.8443 49.9138 8.90783H51.0227C51.2225 8.91176 51.4198 8.86416 51.5939 8.76999C51.768 8.67582 51.9126 8.53854 52.0125 8.37249L53.5009 8.85786C54.5651 9.20047 53.9028 9.87856 53.9028 10.2426C53.9346 12.2719 53.8277 14.301 53.5827 16.3168C53.233 19.1077 52.6971 20.9492 51.432 21.506C51.2444 21.6201 51.0241 21.6747 50.8023 21.6619C50.5805 21.6491 50.3686 21.5695 50.1966 21.4346C49.6384 20.9797 49.0265 20.5892 48.3733 20.2711C48.1203 20.1712 48.0384 19.8857 48.4998 19.9071C50.9036 20.0285 50.9259 20.0285 51.4767 17.209C51.8133 14.8695 51.9923 12.5115 52.0125 10.1498H49.8617C49.8096 10.7565 49.7873 11.2918 49.7352 11.6559C49.1175 16.2669 48.0384 20.3211 45.456 22.127C45.2253 22.2983 44.8979 22.127 45.0467 21.8343C46.3193 19.6502 47.2049 17.3447 47.7854 11.9057C47.9119 10.8136 48.0087 7.7301 48.0608 5.86H46.2375C45.7835 5.86 45.6347 5.61732 45.2253 4.59662H50.5166C50.3466 4.48697 50.2012 4.3459 50.0887 4.18166C49.9763 4.01743 49.8991 3.83334 49.8617 3.64016C49.4822 2.52667 49.0208 1.2847 48.8496 0.87071C48.7454 0.628026 48.924 0.363929 49.2515 0.556649C50.192 1.08574 50.9898 1.81919 51.5808 2.69798C51.7859 2.99884 51.861 3.36441 51.7902 3.71739C51.7193 4.07038 51.5082 4.38311 51.2013 4.58948H53.4786C53.9325 4.58948 54.2228 4.3468 54.6172 3.87571C55.2274 4.38962 55.6293 4.70369 55.6293 5.01775C55.6293 5.57449 55.1233 5.86714 54.26 5.86714L50.0403 5.82431ZM62.1336 14.1041L62.3644 14.5395C63.6103 16.9546 65.4743 19.0272 67.7822 20.5638C68.0575 20.7565 67.9831 20.8564 67.8343 20.9278C66.1598 21.7272 66.1598 21.7986 65.6016 21.3133C63.8507 19.7612 62.4172 17.9094 61.3746 15.8529C60.4504 13.8273 59.8315 11.6859 59.5364 9.49312C59.1792 9.5645 58.7922 9.63588 58.4201 9.68584V19.0078C59.462 18.5938 60.3699 18.1798 61.4564 17.723C61.8881 17.5302 62.0146 17.9371 61.7913 18.1084C60.3997 19.1077 58.167 20.5852 56.5819 21.5559C55.8377 22.0199 55.7707 21.9485 54.3046 20.5138C55.1158 20.2497 55.8451 19.9785 56.4777 19.8V8.49384L58.048 8.83645C58.1179 8.84414 58.1855 8.86514 58.2469 8.89824C58.3082 8.93133 58.362 8.97585 58.4052 9.02917C60.3736 8.34437 62.2518 7.44126 64.0016 6.33823L64.9393 7.259C65.3188 7.62303 65.2444 7.79434 64.9393 7.91568C63.5337 8.46831 62.0888 8.92391 60.6155 9.27899C60.8854 10.6966 61.2915 12.0873 61.8285 13.4332L62.1336 14.1041ZM54.8479 8.76507C56.3537 6.10301 57.4848 3.26121 58.2117 0.313965L59.5364 0.970639C60.1169 1.26329 60.1392 1.2847 59.9159 1.79862C59.6331 2.42674 59.1717 3.30469 58.6954 4.27542H64.8202C65.2519 4.27542 65.5644 4.05415 65.9812 3.56164C66.5914 4.07556 66.9784 4.3468 66.9784 4.68227C66.9784 5.21761 66.5021 5.53167 65.6388 5.53167H57.9587C57.2309 6.82202 56.3191 8.00878 55.2498 9.05772C54.9446 9.32182 54.6172 9.1291 54.8479 8.76507Z" fill="white"/>
<path d="M80.6643 9.00785V20.8779C80.6643 22.0414 79.6224 22.384 78.588 22.1913V11.2634C77.509 12.3575 76.3228 13.3495 75.0456 14.2256C74.7926 14.3969 74.4651 14.1042 74.7181 13.8116C77.3583 11.0243 79.6281 7.93387 81.4755 4.61099L82.5621 5.41042C82.9937 5.73162 83.1425 5.85296 82.8672 6.2384C82.3313 6.96645 81.5723 7.96574 80.6643 9.00785ZM74.8893 6.55246C76.9922 4.56524 78.8683 2.36867 80.4857 0L81.4755 0.82798C81.9816 1.26338 82.0783 1.43469 81.7509 1.74875C79.7835 3.737 77.572 5.48902 75.1647 6.96645C74.9191 7.13776 74.5916 6.8237 74.8893 6.55246ZM97.2154 8.81513C97.2154 9.39329 96.6573 9.68594 95.727 9.68594H92.4302V20.6995C92.4302 21.9843 91.1948 22.7409 90.2794 21.9629C89.4682 21.3686 88.5639 20.9013 87.6003 20.5782C87.2729 20.4568 87.3175 20.1927 87.6524 20.1927C88.285 20.1927 90.0785 20.2855 90.205 20.1927C90.2514 20.1661 90.2884 20.1266 90.311 20.0795C90.3335 20.0323 90.3407 19.9797 90.3315 19.9286V9.68594H83.016C82.5621 9.68594 82.4579 9.37188 81.9518 8.32976H94.9382C95.3921 8.32976 95.6824 8.08708 96.1512 7.57316C96.7466 8.08708 97.1931 8.35118 97.1931 8.81513H97.2154ZM83.6784 2.28408H92.7651C93.1967 2.28408 93.5093 2.0414 93.9781 1.57031C94.4842 2.07709 94.9679 2.34832 94.9679 2.75517C94.9679 3.29051 94.4842 3.63312 93.5465 3.63312H84.7872C84.363 3.61884 84.2067 3.30478 83.6784 2.28408Z" fill="white"/>
<path d="M104.457 7.18763C106.07 5.02373 107.428 2.6944 108.505 0.242591L109.852 1.02061C110.276 1.26329 110.254 1.33467 109.979 1.79862C109.874 1.96279 109.748 2.16265 109.592 2.37678H113.722C114.154 2.37678 114.355 2.23403 114.786 1.79862C115.315 2.28399 115.642 2.5695 115.642 2.8907C115.642 3.3261 115.24 3.60448 114.407 3.60448H110.76C111.358 3.87803 111.871 4.29624 112.248 4.81789C112.933 6.03845 111.341 7.27328 110.529 5.66729C110.172 4.95351 109.845 4.16836 109.592 3.60448H108.654C107.526 5.03331 106.252 6.35079 104.851 7.53738C104.803 7.58755 104.736 7.61723 104.664 7.61991C104.593 7.62259 104.524 7.59804 104.472 7.55166C104.419 7.50528 104.388 7.44087 104.385 7.3726C104.383 7.30433 104.408 7.2378 104.457 7.18763V7.18763ZM126.15 18.037C126.15 18.5724 125.644 18.7936 124.811 18.7936H116.096V20.935C116.096 22.027 115.106 22.4196 113.99 22.2697V18.7936H105.521C105.164 18.7936 105.037 18.5724 104.635 17.5731H113.997V16.1455H107.776C107.419 16.1455 107.314 15.8814 106.86 14.9321H113.997V13.3261H108.788C108.431 13.3261 108.326 13.012 107.947 12.1412H113.997V10.7065H105.365C104.985 10.7065 104.888 10.4639 104.434 9.51454H113.997V8.08699H108.885C108.535 8.08699 108.408 7.77293 108.073 6.89498H114.027V4.63945L115.344 4.90355C116.391 3.43337 117.257 1.85268 117.927 0.192627L119.296 0.992056C119.676 1.21333 119.728 1.33467 119.423 1.74866C119.296 1.91996 119.117 2.1341 118.887 2.40533H123.903C124.334 2.40533 124.535 2.21261 124.989 1.79862C125.495 2.25544 125.875 2.59805 125.875 2.91211C125.875 3.37607 125.369 3.62589 124.587 3.62589H120.866C121.387 3.85276 121.838 4.20425 122.176 4.64659C123.062 5.88142 121.432 7.19477 120.531 5.53881C120.152 4.82503 119.877 4.18263 119.571 3.62589H117.778C117.272 4.13267 116.714 4.68941 116.103 5.20333C116.117 5.24996 116.117 5.29946 116.103 5.34609V6.9164H118.887C119.095 6.91948 119.301 6.87669 119.49 6.79131C119.678 6.70592 119.844 6.58023 119.973 6.42389L121.64 6.93067C122.63 7.22332 121.998 7.68727 121.998 8.17264V9.52882H123.895C124.379 9.52882 124.639 9.26472 125.086 8.81504C125.614 9.30041 125.994 9.58592 125.994 9.94994C125.994 10.4639 125.518 10.7065 124.706 10.7065H121.998V12.9621C121.998 13.8828 120.881 14.1041 119.973 14.0542V13.3404H116.096V14.9892H121.157C121.536 14.9892 121.811 14.7465 122.243 14.2754C122.779 14.7679 123.181 15.082 123.181 15.3961C123.181 15.9314 122.675 16.1955 121.864 16.1955H116.096V17.623H124.044C124.498 17.623 124.751 17.3804 125.227 16.9093C125.771 17.3804 126.15 17.6516 126.15 18.037V18.037ZM116.096 9.51454H119.966V8.08699H116.096V9.51454ZM116.096 12.1341H119.966V10.7065H116.096V12.1341Z" fill="white"/>
<path d="M143.11 5.16773C143.11 5.75303 142.649 6.02426 141.793 6.02426H134.224C133.815 6.02426 133.718 5.75303 133.309 4.73233H140.93C141.436 4.73233 141.674 4.5182 142.173 4.01855C142.805 4.53961 143.11 4.88222 143.11 5.16773Z" fill="white"/>
<path d="M142.195 8.66528C142.195 9.25058 141.719 9.46471 140.908 9.46471H135.133C134.679 9.46471 134.679 9.22202 134.225 8.20132H140.119C140.602 8.20132 140.863 8.00861 141.257 7.48755C141.89 8.05857 142.195 8.32267 142.195 8.66528Z" fill="white"/>
<path d="M134.277 11.6632H140.067C140.528 11.6632 140.811 11.4419 141.183 10.9851C141.816 11.4919 142.121 11.7631 142.121 12.0986C142.121 12.6125 141.615 12.898 140.804 12.898H135.185C134.753 12.898 134.753 12.6339 134.277 11.6632Z" fill="white"/>
<path d="M136.45 0.71375C136.301 0.442515 136.524 0.228383 136.807 0.349724C137.819 0.727254 138.684 1.39535 139.285 2.26264C140.193 3.84009 138.541 5.39612 137.693 3.40468C137.337 2.48389 136.922 1.58518 136.45 0.71375V0.71375Z" fill="white"/>
<path d="M155.539 21.0207C154.571 21.5346 152.324 21.6774 149.585 21.6274C144.376 21.5346 144.242 21.242 144.242 16.8451V8.81516L145.834 9.15063C146.139 9.22201 146.266 9.34335 146.266 9.49325H151.408V3.3976H144.011C143.557 3.3976 143.431 3.1335 142.977 2.1128H150.24C150.501 2.11328 150.756 2.04233 150.976 1.9083C151.197 1.77427 151.372 1.58273 151.483 1.3562L153.232 1.96291C154.244 2.33407 153.455 3.08354 153.455 3.59032V10.9708C153.455 11.97 152.339 12.2127 151.408 12.02V10.8066H146.266V17.6017C146.266 19.5646 146.34 19.8073 148.268 19.9072C150.977 20.05 152.517 19.9072 153.254 19.5646C153.708 19.3719 153.857 18.9579 154.035 18.2084L154.318 17.045C154.327 17.0029 154.351 16.965 154.385 16.9378C154.42 16.9105 154.463 16.8956 154.508 16.8956C154.553 16.8956 154.596 16.9105 154.631 16.9378C154.665 16.965 154.689 17.0029 154.698 17.045C154.973 18.3084 155.1 18.9651 155.606 19.4718C155.736 19.5616 155.841 19.6809 155.911 19.8191C155.981 19.9573 156.014 20.11 156.007 20.2636C156.001 20.4172 155.955 20.5667 155.873 20.6989C155.791 20.831 155.676 20.9416 155.539 21.0207V21.0207Z" fill="white"/>
<path d="M59.7817 31.8131C59.7817 31.6989 59.8561 31.6632 59.9752 31.6703C60.3696 31.706 61.3817 31.7417 62.379 31.7417H64.3437C65.4897 31.7417 66.3009 31.7417 66.7102 31.6703C66.8293 31.6703 66.9335 31.6703 66.926 31.7916C66.8665 32.3769 66.8144 33.0265 66.7698 33.6261C66.763 33.6524 66.7472 33.6757 66.7249 33.6924C66.7027 33.7091 66.6752 33.7182 66.647 33.7182C66.6187 33.7182 66.5913 33.7091 66.569 33.6924C66.5468 33.6757 66.531 33.6524 66.5242 33.6261C66.3604 32.7124 66.033 32.2413 65.4451 32.2413H63.8525V37.5019C63.8525 39.3934 63.8525 39.3934 64.9837 39.4862C64.9018 39.7645 64.8423 39.8573 64.6711 39.8573H61.5901C61.6348 39.6218 61.672 39.5076 61.8282 39.4862C62.6469 39.3719 62.6841 39.3577 62.6841 37.7517V32.2627H61.0245C60.5482 32.2627 60.191 32.7695 59.938 33.6475C59.8784 33.8545 59.6924 33.7902 59.6924 33.6475C59.6924 33.0479 59.7817 32.3984 59.7817 31.8131Z" fill="white"/>
<path d="M69.5535 39.5574C69.9033 39.4932 69.9405 39.4147 69.9405 38.187V35.4961C69.9398 35.4532 69.9297 35.4109 69.9109 35.372C69.8921 35.3331 69.8649 35.2984 69.8313 35.2701C69.7976 35.2419 69.7582 35.2207 69.7155 35.208C69.6727 35.1953 69.6277 35.1913 69.5833 35.1963H69.3973C69.241 35.1963 69.1814 35.0963 69.3973 35.025C69.9256 34.8251 70.4615 34.5967 70.8857 34.4111C70.9025 34.4017 70.9218 34.3974 70.9412 34.3987C70.9606 34.4 70.9792 34.4068 70.9944 34.4184C71.0097 34.43 71.021 34.4457 71.0268 34.4635C71.0326 34.4813 71.0327 34.5003 71.0271 34.5182C71.0271 34.7038 71.0271 35.339 71.0271 35.646C71.3768 35.0107 71.7713 34.4825 72.4262 34.4825C72.6209 34.4725 72.8149 34.5129 72.9877 34.5996C73.1606 34.6862 73.3059 34.8159 73.4085 34.975C73.535 35.2105 73.4606 35.546 72.9322 35.8458C72.8297 35.7067 72.6979 35.5898 72.5453 35.5025C72.3928 35.4152 72.2229 35.3596 72.0466 35.339C71.6522 35.339 71.4364 35.4961 71.0271 35.9243V37.8658C71.0271 39.4861 71.0271 39.5289 71.7043 39.5646C71.615 39.8001 71.6075 39.8786 71.4513 39.8786H69.3526C69.3973 39.636 69.4121 39.5789 69.5535 39.5574Z" fill="white"/>
<path d="M80.136 39.9714C79.6523 39.9714 79.1462 39.8714 79.176 39.1505C79.0149 39.4113 78.7831 39.6253 78.5053 39.7699C78.2275 39.9144 77.914 39.984 77.5983 39.9714C76.6903 39.9714 76.1099 39.5288 76.1099 38.6651C76.1099 38.037 76.9285 36.7808 79.1909 36.7808V35.8671C79.2082 35.7416 79.1959 35.614 79.1547 35.4937C79.1135 35.3734 79.0446 35.2636 78.9531 35.1723C78.8615 35.0811 78.7497 35.0109 78.626 34.9668C78.5022 34.9227 78.3697 34.906 78.2383 34.9178C78.0895 34.9118 77.9419 34.9444 77.8109 35.0123C77.6799 35.0801 77.5704 35.1807 77.4941 35.3033C77.308 35.5531 77.3601 35.7601 77.3601 36.1812C77.2174 36.2916 77.0372 36.3475 76.8541 36.3382C76.7748 36.3383 76.6966 36.3211 76.6254 36.2878C76.5541 36.2546 76.4917 36.2062 76.4429 36.1463C76.3941 36.0864 76.3602 36.0166 76.3438 35.9423C76.3273 35.8679 76.3288 35.791 76.348 35.7173C76.4928 35.3416 76.7599 35.0207 77.1098 34.8022C77.4597 34.5836 77.8736 34.479 78.2904 34.5038C79.6374 34.5038 80.3444 35.082 80.3444 35.9314C80.3444 36.431 80.2997 36.9878 80.2997 37.9585C80.2997 39.3432 80.1658 39.7001 80.8877 39.5716C81.0216 39.5716 81.0365 39.6787 80.9398 39.7501C80.7079 39.9135 80.4229 39.9919 80.136 39.9714V39.9714ZM79.1834 37.1163C77.695 37.1163 77.2559 37.9014 77.2559 38.5438C77.2559 38.7331 77.3343 38.9147 77.4739 39.0485C77.6135 39.1824 77.8028 39.2576 78.0001 39.2576C78.2215 39.2841 78.4463 39.2598 78.6559 39.1866C78.8656 39.1133 79.054 38.9933 79.2058 38.8365C79.176 38.344 79.1834 37.7372 79.1834 37.1519V37.1163Z" fill="white"/>
<path d="M83.2617 34.8823C83.3064 34.6539 83.3361 34.5825 83.4924 34.5825H85.6581C85.5613 34.8252 85.5539 34.8823 85.4274 34.8823C84.9213 34.8823 84.9213 34.9894 85.1297 35.4533L86.499 38.6439L87.8535 35.4533C88.0693 34.9537 87.9502 34.8823 87.3251 34.8823C87.3697 34.6539 87.4069 34.5825 87.5632 34.5825H89.126C89.0442 34.8252 88.9846 34.8823 88.8656 34.8823C88.7465 34.8823 88.5753 34.9894 88.4563 35.2677L86.4692 39.843C86.3948 40.0144 86.2013 40.0072 85.9334 39.9929L83.9092 35.4034C83.7306 34.9751 83.6859 34.8966 83.2617 34.8823Z" fill="white"/>
<path d="M92.713 37.1165C92.713 38.3513 93.4125 39.3292 94.5214 39.3292C95.073 39.3379 95.6067 39.1409 96.0098 38.7796C96.1289 38.6868 96.2107 38.7796 96.1512 38.8938C95.9562 39.2336 95.6663 39.5146 95.3139 39.705C94.9616 39.8954 94.5608 39.9877 94.1567 39.9716C92.6683 39.9716 91.5669 39.0365 91.5669 37.2449C91.5669 35.8816 92.6981 34.4612 94.0004 34.4612C94.3104 34.4287 94.624 34.4638 94.9179 34.564C95.2117 34.6641 95.4781 34.8266 95.6972 35.0394C96.0886 35.4688 96.3076 36.0179 96.3149 36.5883C96.3149 36.8666 96.3149 36.9808 96.0396 36.988C94.6256 37.0665 93.539 37.0594 92.713 37.1165ZM95.154 36.5383C95.154 35.6318 94.7595 34.918 94.0377 34.918C93.3158 34.918 92.6981 35.7175 92.6981 36.7239L95.154 36.5383Z" fill="white"/>
<path d="M99.4032 32.1198C99.9316 31.9128 100.512 31.7272 100.988 31.5845C101.115 31.5845 101.137 31.5845 101.122 31.6915C101.055 32.2197 101.055 33.8757 101.055 34.982V37.8371C101.055 39.4574 101.055 39.5002 101.74 39.5359C101.666 39.7715 101.643 39.85 101.487 39.85H99.2544C99.299 39.6073 99.3139 39.5573 99.4553 39.5359C99.8795 39.4788 99.9539 39.4075 99.9539 38.1583V32.7122C99.9539 32.4838 99.8795 32.284 99.5818 32.284H99.3884C99.2693 32.284 99.2172 32.184 99.4032 32.1198Z" fill="white"/>
<path d="M112.464 31.7417L117.272 37.6946V33.8545C117.272 32.3056 117.227 32.1486 116.527 32.1129C116.289 32.1129 116.282 32.0201 116.341 31.7417H118.857C118.775 32.0629 118.775 32.0914 118.619 32.1129C117.941 32.2128 117.874 32.3341 117.874 33.6047V39.8573C117.874 40.0358 117.539 39.9929 117.48 39.9144L112.137 33.1978V37.5804C112.137 39.3006 112.137 39.4005 113.119 39.5076C113.022 39.786 113.007 39.8787 112.851 39.8787H110.574C110.618 39.6361 110.633 39.5433 110.804 39.5076C111.474 39.3791 111.504 39.3006 111.504 37.9444V32.7838C111.504 32.3199 111.139 32.17 110.656 32.1129C110.477 32.1129 110.492 31.9701 110.522 31.7417H112.464Z" fill="white"/>
<path d="M121.499 37.2164C121.485 36.8606 121.545 36.5057 121.677 36.1729C121.809 35.84 122.01 35.5361 122.266 35.279C122.523 35.022 122.832 34.8171 123.173 34.6766C123.514 34.5361 123.881 34.4629 124.252 34.4612C124.619 34.4599 124.983 34.532 125.319 34.6729C125.656 34.8139 125.958 35.0206 126.207 35.2798C126.455 35.5391 126.645 35.8452 126.763 36.1786C126.882 36.5121 126.926 36.8655 126.894 37.2164C126.908 37.5716 126.847 37.9259 126.716 38.2582C126.585 38.5906 126.385 38.8942 126.129 39.1512C125.873 39.4081 125.565 39.6131 125.225 39.7541C124.885 39.895 124.519 39.9689 124.148 39.9716C122.399 39.9716 121.499 38.701 121.499 37.2164ZM125.726 37.3805C125.726 36.1457 125.123 34.8966 124.088 34.8966C123.054 34.8966 122.652 35.8245 122.652 37.0379C122.652 38.2514 123.24 39.5076 124.215 39.5076C125.376 39.529 125.726 38.7224 125.726 37.3805Z" fill="white"/>
<path d="M133.391 39.4291C133.209 39.6077 132.991 39.7496 132.751 39.8464C132.51 39.9432 132.252 39.9931 131.992 39.993C131.158 39.993 130.645 39.579 130.645 38.4084V35.175H129.737V35.0251C129.749 34.9841 129.773 34.9472 129.806 34.9183C129.839 34.8894 129.879 34.8695 129.923 34.8609C130.868 34.7325 131.076 33.983 131.307 33.2121C131.307 33.1265 131.702 33.1621 131.702 33.2121V34.5611H133.391C133.331 34.9466 133.294 35.1536 133.004 35.1536H131.724V38.1015C131.724 39.2292 132.096 39.4077 132.557 39.4077C132.814 39.4098 133.068 39.3586 133.302 39.2578C133.406 39.2578 133.488 39.322 133.391 39.4291Z" fill="white"/>
<path d="M137.283 37.1165C137.283 38.3513 137.983 39.3292 139.092 39.3292C139.644 39.3394 140.178 39.1422 140.58 38.7796C140.699 38.6868 140.788 38.7796 140.729 38.8938C140.533 39.2325 140.242 39.5126 139.89 39.7028C139.538 39.8931 139.138 39.9861 138.734 39.9716C137.246 39.9716 136.137 39.0365 136.137 37.2449C136.137 35.8816 137.276 34.4612 138.578 34.4612C138.888 34.4303 139.201 34.4661 139.495 34.5662C139.788 34.6662 140.055 34.8279 140.275 35.0394C140.664 35.4698 140.88 36.0189 140.885 36.5883C140.885 36.8666 140.885 36.9808 140.61 36.988C139.203 37.0665 138.117 37.0594 137.283 37.1165ZM139.732 36.5383C139.732 35.6318 139.33 34.918 138.608 34.918C137.886 34.918 137.276 35.7175 137.276 36.7239L139.732 36.5383Z" fill="white"/>
<path d="M65.0211 12.434L64.4257 12.4983C64.1992 12.5291 63.9872 12.6235 63.8164 12.7696C63.6456 12.9156 63.5236 13.1068 63.4657 13.3191L63.0862 14.9323C63.07 14.9855 63.067 15.0415 63.0773 15.096C63.0876 15.1505 63.111 15.202 63.1457 15.2463C63.1881 15.2842 63.239 15.3122 63.2945 15.3283C63.35 15.3444 63.4085 15.3481 63.4657 15.3391L65.1774 15.1678C65.4042 15.1356 65.6164 15.0409 65.7882 14.8952C65.96 14.7494 66.0839 14.559 66.1449 14.347L66.2714 13.7831C66.2818 13.7381 66.3016 13.6957 66.3295 13.6582C66.3575 13.6208 66.393 13.5891 66.434 13.5651C66.475 13.5411 66.5206 13.5253 66.5681 13.5186C66.6156 13.5119 66.664 13.5145 66.7105 13.5261L67.2612 13.7831L67.9235 13.2192L65.8025 10.928L65.1402 11.499L65.3337 12.0486C65.3421 12.0939 65.3406 12.1405 65.3291 12.1852C65.3176 12.2299 65.2964 12.2718 65.2669 12.3081C65.2375 12.3445 65.2003 12.3745 65.158 12.3962C65.1156 12.4179 65.069 12.4308 65.0211 12.434Z" fill="white"/>
</g>
<defs>
<clipPath id="clip0_498_844">
<rect width="156" height="40" fill="white"/>
</clipPath>
</defs>
</svg>
