<svg width="24" height="24" viewBox="0 0 24 24" fill="none" xmlns="http://www.w3.org/2000/svg">
<circle cx="12" cy="12" r="9" stroke="#145049" stroke-width="2"/>
<path d="M11.73 14.308C11.5527 14.308 11.4033 14.2567 11.282 14.154C11.17 14.042 11.114 13.9113 11.114 13.762C11.114 13.342 11.1887 12.9733 11.338 12.656C11.4873 12.3387 11.66 12.0773 11.856 11.872C12.0613 11.6573 12.332 11.4147 12.668 11.144C13.0227 10.864 13.284 10.6213 13.452 10.416C13.62 10.2107 13.704 9.97733 13.704 9.716C13.704 8.69867 13.0367 8.19 11.702 8.19C11.3753 8.19 11.0533 8.232 10.736 8.316C10.428 8.39067 10.1527 8.50267 9.91 8.652C9.798 8.72667 9.68133 8.764 9.56 8.764C9.41067 8.764 9.28 8.708 9.168 8.596C9.056 8.484 9 8.35333 9 8.204C9 7.98933 9.11667 7.812 9.35 7.672C9.73267 7.42933 10.12 7.25667 10.512 7.154C10.904 7.05133 11.338 7 11.814 7C12.766 7 13.5267 7.238 14.096 7.714C14.6747 8.19 14.964 8.834 14.964 9.646C14.964 10.01 14.8987 10.332 14.768 10.612C14.6373 10.8827 14.4787 11.116 14.292 11.312C14.1053 11.4987 13.858 11.7133 13.55 11.956C13.1487 12.2733 12.8453 12.5627 12.64 12.824C12.444 13.076 12.346 13.3887 12.346 13.762C12.346 13.9113 12.2853 14.042 12.164 14.154C12.0427 14.2567 11.898 14.308 11.73 14.308ZM11.702 16.968C11.478 16.968 11.282 16.8887 11.114 16.73C10.9553 16.562 10.876 16.3613 10.876 16.128C10.876 15.904 10.9553 15.7127 11.114 15.554C11.282 15.386 11.478 15.302 11.702 15.302C11.9353 15.302 12.1313 15.386 12.29 15.554C12.458 15.7127 12.542 15.904 12.542 16.128C12.542 16.3613 12.458 16.562 12.29 16.73C12.1313 16.8887 11.9353 16.968 11.702 16.968Z" fill="#C79E74"/>
</svg>
