<svg id="圖層_1" data-name="圖層 1" xmlns="http://www.w3.org/2000/svg" viewBox="0 0 209.62 56.04"><defs><style>.cls-1{fill:#145049;}.cls-2{fill:#c79e74;}.cls-3{fill:#6671a0;}.cls-4{fill:#3e3a39;}</style></defs><path class="cls-1" d="M44.6,22.28H37.89a1.77,1.77,0,0,1-1.75-1.58,13.91,13.91,0,0,0-27.63,0,1.77,1.77,0,0,1-1.75,1.58H.05a22.28,22.28,0,1,1,44.55,0Z"/><circle class="cls-2" cx="22.23" cy="20.79" r="6.97"/><path class="cls-3" d="M16.54,32.53"/><path class="cls-3" d="M17.18,32.34"/><path class="cls-1" d="M44.55,28.5a3.16,3.16,0,0,1-.09.76s-.1.33-.15.46c-2.27,6.35-13.64,19.12-19.12,25a4,4,0,0,1-5.83,0C13.88,48.84,2.51,36.07.24,29.72c0-.13-.15-.46-.15-.46A3.16,3.16,0,0,1,0,28.5a2.81,2.81,0,0,1,.07-.65h0a3.24,3.24,0,0,1,3.18-2.6,1.72,1.72,0,0,1,.46,0,8.81,8.81,0,0,1,.93.27l13.47,4A.88.88,0,0,1,18.48,31l-1.42,1.41a2.65,2.65,0,0,0,0,3.74l4.07,4.07a1.73,1.73,0,0,0,1.14.51h0a1.73,1.73,0,0,0,1.14-.51l4.07-4.07a2.65,2.65,0,0,0,0-3.74L26.08,31a.88.88,0,0,1,.36-1.47l13.47-4a8.81,8.81,0,0,1,.93-.27,1.72,1.72,0,0,1,.46,0,3.26,3.26,0,0,1,3.19,2.6h0A3.49,3.49,0,0,1,44.55,28.5Z"/><path class="cls-2" d="M208.45,48.65a.41.41,0,0,1,0,.16l0,.1c-.47,1.31-2.83,4-4,5.19a.83.83,0,0,1-1.21,0c-1.14-1.23-3.5-3.88-4-5.19l0-.1a.81.81,0,0,1,0-.16.57.57,0,0,1,0-.13h0a.67.67,0,0,1,.66-.54h.1l.19.06,2.79.84a.18.18,0,0,1,.08.3l-.3.29a.56.56,0,0,0,0,.78l.85.84a.36.36,0,0,0,.23.11h0a.38.38,0,0,0,.24-.11l.84-.84a.54.54,0,0,0,0-.78l-.29-.29a.18.18,0,0,1,.08-.3l2.79-.84.19-.06h.1a.68.68,0,0,1,.66.54h0A.57.57,0,0,1,208.45,48.65Z"/><path class="cls-4" d="M190.9,21.33a.86.86,0,0,1,0,.23l0,.14c-.53,1.94-3.19,5.84-4.47,7.65a.79.79,0,0,1-1.36,0c-1.28-1.81-3.94-5.71-4.47-7.65l0-.14a1.64,1.64,0,0,1,0-.23,1.23,1.23,0,0,1,0-.2h0a.84.84,0,0,1,.74-.79.4.4,0,0,1,.11,0l.22.09,3.14,1.23a.3.3,0,0,1,.09.44l-.33.44a1,1,0,0,0,0,1.14l1,1.24a.37.37,0,0,0,.27.16h0a.39.39,0,0,0,.27-.16l.95-1.24a1,1,0,0,0,0-1.14l-.33-.44a.3.3,0,0,1,.08-.44l3.15-1.23.22-.09a.34.34,0,0,1,.1,0,.84.84,0,0,1,.75.79h0A1.27,1.27,0,0,1,190.9,21.33Z"/><path class="cls-2" d="M69.72,47.59a.78.78,0,0,1,0,.16l0,.1c-.47,1.31-2.83,4-4,5.19a.82.82,0,0,1-1.2,0c-1.14-1.23-3.5-3.88-4-5.19l0-.1a.78.78,0,0,1,0-.16.59.59,0,0,1,0-.13h0a.67.67,0,0,1,.66-.54h.09l.19,0,2.8.84a.18.18,0,0,1,.07.3l-.29.29a.56.56,0,0,0,0,.78l.84.84a.38.38,0,0,0,.24.11h0a.38.38,0,0,0,.24-.11l.84-.84a.54.54,0,0,0,0-.78l-.29-.29a.18.18,0,0,1,.08-.3L68.76,47l.19,0H69a.69.69,0,0,1,.67.54h0S69.72,47.55,69.72,47.59Z"/><path class="cls-4" d="M67.24,8.16c0,1.23-.11,2.83-.17,4.32h1.49a1.5,1.5,0,0,0,1.33-.75l2,.68c1.43.48.54,1.43.54,1.94A65.05,65.05,0,0,1,72,22.86c-.47,3.91-1.19,6.49-2.89,7.27a1.42,1.42,0,0,1-1.66-.1A12.58,12.58,0,0,0,65,28.4c-.34-.14-.45-.54.17-.51,3.23.17,3.26.17,4-3.78a76.94,76.94,0,0,0,.72-9.89H67c-.07.85-.1,1.6-.17,2.11C66,22.79,64.55,28.47,61.08,31c-.31.24-.75,0-.55-.41,1.71-3.06,2.9-6.29,3.68-13.91.17-1.53.3-5.85.37-8.47H62.13c-.61,0-.81-.34-1.36-1.77h7.11A2.07,2.07,0,0,1,67,5.1c-.51-1.56-1.13-3.3-1.36-3.88-.14-.34.1-.71.54-.44a9.36,9.36,0,0,1,3.13,3,1.94,1.94,0,0,1-.51,2.65h3.06c.61,0,1-.34,1.53-1,.82.72,1.36,1.16,1.36,1.6,0,.78-.68,1.19-1.84,1.19Zm16.25,11.6.31.61a22.33,22.33,0,0,0,7.28,8.44c.37.27.27.41.07.51-2.25,1.12-2.25,1.22-3,.54a25.75,25.75,0,0,1-5.68-7.65A32.65,32.65,0,0,1,80,13.3c-.48.1-1,.2-1.5.27V26.63c1.4-.58,2.62-1.16,4.08-1.8.58-.27.75.3.45.54-1.87,1.4-4.87,3.47-7,4.83-1,.65-1.09.55-3.06-1.46,1.09-.37,2.07-.75,2.92-1V11.9l2.11.48a.71.71,0,0,1,.48.27A36.11,36.11,0,0,0,86,8.88l1.26,1.29c.51.51.41.75,0,.92A42.85,42.85,0,0,1,81.45,13a32.74,32.74,0,0,0,1.63,5.82M73.7,12.28A48,48,0,0,0,78.22.44L80,1.36c.78.41.81.44.51,1.16-.38.88-1,2.11-1.64,3.47H87.1c.58,0,1-.31,1.56-1C89.48,5.71,90,6.09,90,6.56c0,.75-.64,1.19-1.8,1.19H77.88a22.12,22.12,0,0,1-3.64,4.94C73.83,13.06,73.39,12.79,73.7,12.28Z"/><path class="cls-4" d="M108.39,12.62V29.25c0,1.63-1.4,2.11-2.79,1.84V15.78a32.88,32.88,0,0,1-4.76,4.15c-.34.24-.78-.17-.44-.58a63.84,63.84,0,0,0,9.08-12.89l1.46,1.12c.58.45.78.62.41,1.16C110.63,9.76,109.61,11.16,108.39,12.62Zm-7.76-3.44A55.82,55.82,0,0,0,108.15,0l1.33,1.16c.68.61.81.85.37,1.29A47.49,47.49,0,0,1,101,9.76C100.67,10,100.23,9.56,100.63,9.18Zm30,3.17c0,.81-.75,1.22-2,1.22H124.2V29c0,1.8-1.66,2.86-2.89,1.77a13,13,0,0,0-3.6-1.94c-.44-.17-.38-.54.07-.54.85,0,3.26.13,3.43,0a.36.36,0,0,0,.17-.37V13.57h-9.83c-.61,0-.75-.44-1.43-1.9h17.45c.61,0,1-.34,1.63-1.06C130,11.33,130.6,11.7,130.6,12.35ZM112.44,3.2h12.21c.58,0,1-.34,1.63-1,.68.71,1.33,1.09,1.33,1.66,0,.75-.65,1.23-1.91,1.23H113.93C113.36,5.07,113.15,4.63,112.44,3.2Z"/><path class="cls-4" d="M140.36,10.07A50.27,50.27,0,0,0,145.8.34l1.81,1.09c.57.34.54.44.17,1.09-.14.23-.31.51-.52.81h5.55c.58,0,.85-.2,1.43-.81.71.68,1.15,1.08,1.15,1.53,0,.61-.54,1-1.66,1h-4.9a5.12,5.12,0,0,1,2,1.7c.92,1.71-1.22,3.44-2.31,1.19-.48-1-.92-2.1-1.26-2.89H146a37.81,37.81,0,0,1-5.11,5.51A.36.36,0,0,1,140.36,10.07Zm29.15,15.2c0,.75-.68,1.06-1.8,1.06H156v3c0,1.53-1.33,2.08-2.83,1.87V26.33H141.79c-.48,0-.65-.31-1.19-1.71h12.58v-2h-8.36c-.48,0-.62-.37-1.23-1.7h9.59V18.67h-7c-.48,0-.62-.44-1.13-1.66h8.13V15h-11.6c-.51,0-.64-.34-1.25-1.67h12.85v-2h-6.87c-.47,0-.64-.44-1.09-1.67h8V6.5l1.77.37a32.53,32.53,0,0,0,3.47-6.6l1.84,1.12c.51.31.58.48.17,1.06-.17.24-.41.54-.72.92h6.74c.58,0,.85-.27,1.46-.85.68.64,1.19,1.12,1.19,1.56,0,.65-.68,1-1.73,1h-5a4.48,4.48,0,0,1,1.76,1.43c1.19,1.73-1,3.57-2.21,1.25-.51-1-.88-1.9-1.29-2.68h-2.41c-.68.71-1.43,1.49-2.25,2.21a.36.36,0,0,1,0,.2V9.69h3.74A1.83,1.83,0,0,0,161.21,9l2.24.71c1.33.41.48,1.06.48,1.74v1.9h2.55c.65,0,1-.37,1.6-1,.71.68,1.22,1.08,1.22,1.59,0,.72-.64,1.06-1.73,1.06h-3.64v3.16c0,1.29-1.5,1.6-2.72,1.53v-1H156V21h6.8c.51,0,.88-.34,1.46-1,.72.69,1.26,1.13,1.26,1.57,0,.75-.68,1.12-1.77,1.12H156v2h10.68c.61,0,.95-.34,1.59-1C169,24.35,169.51,24.73,169.51,25.27ZM156,13.33h5.2v-2H156ZM156,17h5.2V15H156Z"/><path class="cls-4" d="M192.3,7.24c0,.82-.62,1.2-1.77,1.2H180.36c-.55,0-.68-.38-1.23-1.81h10.24c.68,0,1-.3,1.67-1C191.89,6.36,192.3,6.84,192.3,7.24Z"/><path class="cls-4" d="M191.07,12.14c0,.82-.64,1.12-1.73,1.12h-7.76c-.61,0-.61-.34-1.22-1.77h7.92c.65,0,1-.27,1.53-1C190.66,11.29,191.07,11.66,191.07,12.14Z"/><path class="cls-4" d="M180.43,16.34h7.78c.62,0,1-.31,1.5-.95.85.71,1.26,1.09,1.26,1.56,0,.72-.68,1.12-1.77,1.12h-7.55C181.07,18.07,181.07,17.7,180.43,16.34Z"/><path class="cls-4" d="M183.35,1c-.2-.38.1-.68.48-.51a7.08,7.08,0,0,1,3.33,2.68c1.22,2.21-1,4.39-2.14,1.6A33.22,33.22,0,0,0,183.35,1Z"/><path class="cls-4" d="M209,29.45c-1.3.72-4.32.92-8,.85-7-.13-7.18-.54-7.18-6.7V12.35l2.14.47c.41.1.58.27.58.48h6.91V4.76h-9.94c-.61,0-.78-.37-1.39-1.8h9.76a1.84,1.84,0,0,0,1.67-1.06l2.35.85c1.36.52.3,1.57.3,2.28V15.37c0,1.4-1.5,1.74-2.75,1.47v-1.7h-6.91v9.52c0,2.75.1,3.09,2.69,3.23,3.64.2,5.71,0,6.7-.48.61-.27.81-.85,1.05-1.9l.38-1.63a.26.26,0,0,1,.51,0c.37,1.77.54,2.69,1.22,3.4A1.3,1.3,0,0,1,209,29.45Z"/><path class="cls-1" d="M80.33,44.57c0-.16.1-.21.26-.2.53.05,1.89.1,3.23.1h2.64c1.54,0,2.63,0,3.18-.1.16,0,.3,0,.29.17-.08.82-.15,1.73-.21,2.57a.17.17,0,0,1-.33,0c-.22-1.28-.66-1.94-1.45-1.94H85.8v7.37c0,2.65,0,2.65,1.52,2.78-.11.39-.19.52-.42.52H82.76c.06-.33.11-.49.32-.52,1.1-.16,1.15-.18,1.15-2.43V45.2H82c-.64,0-1.12.71-1.46,1.94-.08.29-.33.2-.33,0C80.21,46.3,80.33,45.39,80.33,44.57Z"/><path class="cls-1" d="M93.46,55.42c.47-.09.52-.2.52-1.92V49.73a.43.43,0,0,0-.48-.42h-.25c-.21,0-.29-.14,0-.24.71-.28,1.43-.6,2-.86a.13.13,0,0,1,.19.15c0,.26,0,1.15,0,1.58.47-.89,1-1.63,1.88-1.63a1.46,1.46,0,0,1,1.32.69c.17.33.07.8-.64,1.22a1.71,1.71,0,0,0-1.19-.71c-.53,0-.82.22-1.37.82v2.72c0,2.27,0,2.33.91,2.38-.12.33-.13.44-.34.44H93.19C93.25,55.53,93.27,55.45,93.46,55.42Z"/><path class="cls-1" d="M107.68,56c-.65,0-1.33-.14-1.29-1.15A2.35,2.35,0,0,1,104.27,56c-1.22,0-2-.62-2-1.83,0-.88,1.1-2.64,4.14-2.64V50.25a1.18,1.18,0,0,0-1.28-1.33,1.11,1.11,0,0,0-1,.54c-.25.35-.18.64-.18,1.23a1,1,0,0,1-.68.22.7.7,0,0,1-.68-.87,2.61,2.61,0,0,1,2.61-1.7c1.81,0,2.76.81,2.76,2,0,.7-.06,1.48-.06,2.84,0,1.94-.18,2.44.79,2.26.18,0,.2.15.07.25A1.62,1.62,0,0,1,107.68,56Zm-1.28-4c-2,0-2.59,1.1-2.59,2a1,1,0,0,0,1,1,1.89,1.89,0,0,0,1.62-.59C106.39,53.72,106.4,52.87,106.4,52.05Z"/><path class="cls-1" d="M111.88,48.87c.06-.32.1-.42.31-.42h2.91c-.13.34-.14.42-.31.42-.68,0-.68.15-.4.8l1.84,4.47,1.82-4.47c.29-.7.13-.8-.71-.8.06-.32.11-.42.32-.42h2.1c-.11.34-.19.42-.35.42s-.39.15-.55.54l-2.67,6.41c-.1.24-.36.23-.72.21l-2.72-6.43C112.51,49,112.45,48.89,111.88,48.87Z"/><path class="cls-1" d="M124.58,52c0,1.73.94,3.1,2.43,3.1a2.86,2.86,0,0,0,2-.77c.16-.13.27,0,.19.16A2.92,2.92,0,0,1,126.52,56c-2,0-3.48-1.31-3.48-3.82,0-1.91,1.52-3.9,3.27-3.9a2.78,2.78,0,0,1,2.28.81,3.36,3.36,0,0,1,.83,2.17c0,.39,0,.55-.37.56C127.15,51.93,125.69,51.92,124.58,52Zm3.28-.81c0-1.27-.53-2.27-1.5-2.27s-1.8,1.12-1.8,2.53Z"/><path class="cls-1" d="M133.57,45c.71-.29,1.49-.55,2.13-.75.17,0,.2,0,.18.15-.09.74-.09,3.06-.09,4.61v4c0,2.27,0,2.33.92,2.38-.1.33-.13.44-.34.44h-3c.06-.34.08-.41.27-.44.57-.08.67-.18.67-1.93V45.83c0-.32-.1-.6-.5-.6h-.26C133.39,45.23,133.32,45.09,133.57,45Z"/><path class="cls-1" d="M151.12,44.47l6.46,8.34V47.43c0-2.17-.06-2.39-1-2.44-.32,0-.33-.13-.25-.52h3.38c-.11.45-.11.49-.32.52-.91.14-1,.31-1,2.09v8.76c0,.25-.45.19-.53.08l-7.18-9.41v6.14c0,2.41,0,2.55,1.32,2.7-.13.39-.15.52-.36.52h-3.06c.06-.34.08-.47.31-.52.9-.18.94-.29.94-2.19V45.93c0-.65-.49-.86-1.14-.94-.24,0-.22-.2-.18-.52Z"/><path class="cls-1" d="M163.26,52.14a3.72,3.72,0,0,1,3.7-3.86,3.55,3.55,0,0,1,3.55,3.86A3.72,3.72,0,0,1,166.82,56C164.47,56,163.26,54.22,163.26,52.14Zm5.68.23c0-1.73-.81-3.48-2.2-3.48s-1.93,1.3-1.93,3,.79,3.46,2.1,3.46C168.47,55.38,168.94,54.25,168.94,52.37Z"/><path class="cls-1" d="M179.24,55.24a2.63,2.63,0,0,1-1.88.79c-1.12,0-1.81-.58-1.81-2.22V49.28h-1.22l0-.21a.33.33,0,0,1,.25-.23c1.27-.18,1.55-1.23,1.86-2.31,0-.12.53-.07.53,0v1.89h2.27c-.08.54-.13.83-.52.83H177v4.13c0,1.58.5,1.83,1.12,1.83a2.39,2.39,0,0,0,1-.21C179.26,55,179.37,55.09,179.24,55.24Z"/><path class="cls-1" d="M184.47,52c0,1.73.94,3.1,2.43,3.1a2.84,2.84,0,0,0,2-.77c.16-.13.28,0,.2.16A2.94,2.94,0,0,1,186.42,56c-2,0-3.49-1.31-3.49-3.82,0-1.91,1.53-3.9,3.28-3.9a2.81,2.81,0,0,1,2.28.81,3.36,3.36,0,0,1,.82,2.17c0,.39,0,.55-.37.56C187.05,51.93,185.59,51.92,184.47,52Zm3.29-.81c0-1.27-.54-2.27-1.51-2.27s-1.79,1.12-1.79,2.53Z"/><path class="cls-4" d="M87.37,17.42l-.8.09a1.56,1.56,0,0,0-1.29,1.15l-.51,2.26a.5.5,0,0,0,.08.44h0a.51.51,0,0,0,.43.13l2.3-.24a1.59,1.59,0,0,0,1.3-1.15l.17-.79a.48.48,0,0,1,.59-.36l.74.36.89-.79-2.85-3.21-.89.8.26.77A.46.46,0,0,1,87.37,17.42Z"/></svg>