<svg width="24" height="24" viewBox="0 0 24 24" fill="none" xmlns="http://www.w3.org/2000/svg">
<path fill-rule="evenodd" clip-rule="evenodd" d="M5.95654 10.0495C5.95654 6.7118 8.66224 4.0061 11.9999 4.0061C15.3375 4.0061 18.0432 6.7118 18.0432 10.0495C18.0432 13.3871 15.3375 16.0928 11.9999 16.0928C8.66224 16.0928 5.95654 13.3871 5.95654 10.0495ZM11.9999 2.0061C7.55767 2.0061 3.95654 5.60724 3.95654 10.0495C3.95654 13.868 6.61745 17.065 10.1862 17.8875L11.0298 21.2618C11.2822 22.2717 12.7176 22.2717 12.97 21.2618L13.8136 17.8875C17.3823 17.065 20.0432 13.868 20.0432 10.0495C20.0432 5.60724 16.4421 2.0061 11.9999 2.0061Z" fill="#145049"/>
<path d="M11.536 6.15542C11.704 5.73719 12.296 5.73719 12.464 6.15542L13.1762 7.92887C13.2477 8.10697 13.4148 8.22841 13.6063 8.2414L15.513 8.37068C15.9627 8.40117 16.1457 8.96427 15.7998 9.25324L14.3332 10.4786C14.1859 10.6016 14.1221 10.7981 14.1689 10.9843L14.6352 12.8376C14.7451 13.2747 14.2661 13.6227 13.8844 13.3831L12.2659 12.3669C12.1033 12.2649 11.8967 12.2649 11.7341 12.3669L10.1156 13.3831C9.73388 13.6227 9.25489 13.2747 9.36484 12.8376L9.83109 10.9843C9.87792 10.7981 9.81407 10.6016 9.66679 10.4786L8.20021 9.25324C7.85435 8.96426 8.03731 8.40117 8.48697 8.37068L10.3937 8.2414C10.5852 8.22841 10.7523 8.10697 10.8238 7.92887L11.536 6.15542Z" fill="#C79E74"/>
</svg>
