<svg width="25" height="25" viewBox="0 0 25 25" fill="none" xmlns="http://www.w3.org/2000/svg">
<path fill-rule="evenodd" clip-rule="evenodd" d="M6 10.0434C6 6.7057 8.7057 4 12.0434 4C15.381 4 18.0867 6.7057 18.0867 10.0434C18.0867 13.381 15.381 16.0867 12.0434 16.0867C8.7057 16.0867 6 13.381 6 10.0434ZM12.0434 2C7.60113 2 4 5.60113 4 10.0434C4 13.8619 6.6609 17.0589 10.2296 17.8814L11.0732 21.2557C11.3257 22.2656 12.761 22.2656 13.0135 21.2557L13.8571 17.8814C17.4258 17.0589 20.0867 13.8619 20.0867 10.0434C20.0867 5.60113 16.4856 2 12.0434 2Z" fill="#145049"/>
</svg>
