<svg width="24" height="24" viewBox="0 0 24 24" fill="none" xmlns="http://www.w3.org/2000/svg">
<path fill-rule="evenodd" clip-rule="evenodd" d="M12.0434 4C8.7057 4 6 6.7057 6 10.0434C6 13.381 8.7057 16.0867 12.0434 16.0867C12.6617 16.0867 13.2584 15.9938 13.8202 15.8213L15.0149 17.52C14.6419 17.6684 14.2551 17.7896 13.8571 17.8814L13.0135 21.2557C12.761 22.2656 11.3257 22.2656 11.0732 21.2557L10.2296 17.8814C6.6609 17.0589 4 13.8619 4 10.0434C4 5.60113 7.60113 2 12.0434 2C16.4856 2 20.0867 5.60113 20.0867 10.0434C20.0867 11.9883 19.3964 13.772 18.2474 15.1628L17.0392 13.445C17.7002 12.476 18.0867 11.3048 18.0867 10.0434C18.0867 6.7057 15.381 4 12.0434 4Z" fill="#145049"/>
<path fill-rule="evenodd" clip-rule="evenodd" d="M9.75 10C9.75 8.75736 10.7574 7.75 12 7.75C13.2426 7.75 14.25 8.75736 14.25 10C14.25 11.2426 13.2426 12.25 12 12.25C10.7574 12.25 9.75 11.2426 9.75 10ZM12 6.25C9.92893 6.25 8.25 7.92893 8.25 10C8.25 12.0711 9.92893 13.75 12 13.75C12.4874 13.75 12.9531 13.657 13.3803 13.4878C13.3998 13.5265 13.4231 13.5641 13.45 13.6L15.55 16.4C15.7985 16.7314 16.2686 16.7985 16.6 16.55C16.9314 16.3015 16.9985 15.8314 16.75 15.5L14.65 12.7C14.6433 12.6911 14.6364 12.6823 14.6294 12.6737C15.3211 11.9934 15.75 11.0468 15.75 10C15.75 7.92893 14.0711 6.25 12 6.25Z" fill="#C79E74"/>
</svg>
