<svg width="32" height="32" viewBox="0 0 32 32" fill="none" xmlns="http://www.w3.org/2000/svg">
<path d="M27.9787 13.3679H24.5216C24.2976 13.3667 24.0818 13.2855 23.9155 13.1399C23.7492 12.9943 23.644 12.7945 23.62 12.5784C23.4151 10.8872 22.5771 9.3278 21.2651 8.19612C19.953 7.06445 18.2582 6.43929 16.5023 6.43929C14.7463 6.43929 13.0515 7.06445 11.7394 8.19612C10.4274 9.3278 9.58938 10.8872 9.38451 12.5784C9.36047 12.7945 9.25526 12.9943 9.08897 13.1399C8.92267 13.2855 8.70693 13.3667 8.48288 13.3679H5.02577C4.9934 11.8865 5.26632 10.4137 5.82853 9.03595C6.39073 7.65817 7.23091 6.40311 8.29981 5.34433C9.3687 4.28555 10.6448 3.44436 12.0533 2.87008C13.4618 2.29581 14.9743 2 16.5023 2C18.0302 2 19.5427 2.29581 20.9512 2.87008C22.3597 3.44436 23.6358 4.28555 24.7047 5.34433C25.7736 6.40311 26.6138 7.65817 27.176 9.03595C27.7382 10.4137 28.0111 11.8865 27.9787 13.3679V13.3679Z" fill="#145049"/>
<path d="M16.4534 16.1059C18.4367 16.1059 20.0444 14.5467 20.0444 12.6234C20.0444 10.7 18.4367 9.14087 16.4534 9.14087C14.4701 9.14087 12.8623 10.7 12.8623 12.6234C12.8623 14.5467 14.4701 16.1059 16.4534 16.1059Z" fill="#C79E74"/>
<path d="M27.953 16.4756C27.9535 16.6035 27.9379 16.731 27.9067 16.8553C27.9067 16.8553 27.8551 17.0202 27.8294 17.0851C26.6598 20.2578 20.8018 26.6383 17.9784 29.5762C17.7857 29.7751 17.553 29.9336 17.2947 30.0419C17.0364 30.1503 16.758 30.2062 16.4765 30.2062C16.1951 30.2062 15.9167 30.1503 15.6584 30.0419C15.4001 29.9336 15.1674 29.7751 14.9747 29.5762C12.1513 26.6383 6.29326 20.2578 5.12372 17.0851C5.12372 17.0202 5.04643 16.8553 5.04643 16.8553C5.01517 16.731 4.9996 16.6035 5.00006 16.4756C4.99901 16.3663 5.01112 16.2573 5.03613 16.1508V16.1508C5.11234 15.784 5.31722 15.4541 5.61592 15.2173C5.91462 14.9805 6.28869 14.8513 6.67452 14.8517C6.75316 14.8414 6.83288 14.8414 6.91152 14.8517C7.07367 14.8881 7.23363 14.9332 7.39067 14.9866L14.3307 16.9852C14.4073 17.0063 14.4769 17.0467 14.5323 17.1022C14.5878 17.1578 14.6272 17.2265 14.6465 17.3015C14.6658 17.3765 14.6644 17.4551 14.6424 17.5294C14.6205 17.6037 14.5787 17.671 14.5213 17.7247L13.7897 18.4292C13.5348 18.6773 13.3918 19.0133 13.3918 19.3635C13.3918 19.7137 13.5348 20.0497 13.7897 20.2978L15.8866 22.3314C16.0429 22.4843 16.2523 22.5751 16.474 22.5862C16.6956 22.5751 16.9051 22.4843 17.0613 22.3314L19.1583 20.2978C19.4131 20.0497 19.5562 19.7137 19.5562 19.3635C19.5562 19.0133 19.4131 18.6773 19.1583 18.4292L18.4369 17.7247C18.3808 17.6712 18.34 17.6046 18.3184 17.5312C18.2969 17.4578 18.2954 17.3803 18.3141 17.3062C18.3328 17.2321 18.3711 17.164 18.4251 17.1086C18.4792 17.0532 18.5472 17.0124 18.6224 16.9902L25.5624 14.9916C25.7195 14.9382 25.8794 14.8931 26.0416 14.8567C26.1202 14.8464 26.1999 14.8464 26.2786 14.8567C26.6648 14.857 27.0391 14.9863 27.3384 15.223C27.6378 15.4596 27.8439 15.789 27.9221 16.1558C27.9425 16.2612 27.9529 16.3683 27.953 16.4756V16.4756Z" fill="#145049"/>
</svg>
